<?xml version="1.0" standalone="no"?>
<!DOCTYPE svg PUBLIC "-//W3C//DTD SVG 20010904//EN"
 "http://www.w3.org/TR/2001/REC-SVG-20010904/DTD/svg10.dtd">
<svg version="1.0" xmlns="http://www.w3.org/2000/svg"
 width="512.000000pt" height="512.000000pt" viewBox="0 0 512.000000 512.000000"
 preserveAspectRatio="xMidYMid meet">
<metadata>
Created by potrace 1.14, written by Peter Selinger 2001-2017
</metadata>
<g transform="translate(0.000000,512.000000) scale(0.100000,-0.100000)"
fill="#000000" stroke="none">
<path d="M0 2560 l0 -2560 2560 0 2560 0 0 2560 0 2560 -2560 0 -2560 0 0
-2560z m2537 2255 c73 -33 124 -70 295 -212 81 -68 185 -152 230 -187 93 -71
321 -222 349 -231 11 -4 19 -9 19 -13 0 -4 -31 -24 -69 -46 -38 -21 -91 -58
-119 -82 l-49 -43 -98 55 c-417 235 -719 534 -727 719 -2 37 2 50 17 61 25 19
81 11 152 -21z m-555 -569 c125 -41 203 -73 701 -290 279 -121 387 -158 469
-160 l66 -1 89 86 c97 95 162 132 298 170 114 32 287 33 366 1 216 -86 465
-313 660 -603 l58 -87 -55 -18 c-117 -37 -233 -136 -282 -242 -34 -74 -41
-174 -17 -238 9 -25 15 -47 13 -49 -2 -2 -57 -9 -121 -16 -188 -18 -419 8
-650 72 -272 76 -446 189 -512 332 -32 67 -31 93 4 180 42 103 44 112 27 150
-27 65 -47 71 -198 57 -308 -27 -586 45 -853 224 -142 94 -297 277 -330 389
-19 63 -19 62 2 83 25 25 106 13 265 -40z m-1534 -1072 c17 -20 56 -86 88
-148 80 -155 119 -212 184 -277 l57 -55 -35 -40 c-86 -99 -190 -282 -223 -391
-6 -24 -15 -43 -18 -43 -15 0 -92 132 -131 223 -127 298 -142 641 -33 737 45
40 74 39 111 -6z m4340 -23 c18 -59 15 -84 -18 -129 -44 -61 -179 -152 -224
-152 -26 0 -49 58 -43 107 9 82 83 157 190 194 75 26 82 25 95 -20z m-1813
-109 c137 -185 433 -322 824 -383 75 -11 143 -24 151 -28 27 -14 127 -152 173
-240 25 -47 58 -126 73 -176 24 -80 27 -106 28 -240 1 -242 -26 -320 -271
-795 -127 -244 -138 -318 -61 -406 49 -55 81 -67 160 -61 133 11 319 -20 427
-70 58 -28 127 -93 157 -148 18 -34 18 -34 -6 -60 l-23 -25 -653 0 -652 0 -7
42 c-30 181 -206 307 -544 393 -77 19 -345 71 -396 76 -5 1 37 7 95 15 546 74
884 242 1008 501 36 76 37 81 37 193 0 89 -4 126 -19 165 -63 164 -212 311
-417 409 -440 211 -1009 153 -1479 -151 -47 -31 -87 -57 -89 -59 -2 -2 20 -35
49 -74 50 -67 54 -70 74 -57 314 206 624 300 930 284 406 -22 726 -216 778
-471 28 -142 -75 -285 -281 -386 -230 -114 -486 -170 -956 -210 -132 -11 -252
-23 -267 -26 -34 -7 -78 -58 -78 -90 0 -34 24 -78 56 -103 51 -40 186 -71 504
-116 276 -39 520 -97 644 -154 90 -41 176 -124 176 -171 0 -7 -270 -10 -871
-10 l-871 0 -63 50 c-287 228 -543 660 -642 1079 -37 159 -43 398 -13 541 12
58 38 146 59 196 172 418 633 687 1351 789 236 34 353 42 625 43 l230 2 50
-68z"/>
<path d="M3935 3666 c-124 -55 -124 -231 -1 -287 54 -25 93 -24 140 4 61 34
81 68 81 137 0 63 -16 95 -67 133 -33 25 -113 32 -153 13z"/>
</g>
</svg>
